<svg width="209" height="32" viewBox="0 0 209 32" fill="none" xmlns="http://www.w3.org/2000/svg">
<path d="M16 0L32 16L16 32L1.89636e-06 16L16 0Z" fill="#363636"/>
<path d="M16 2.82843L28.8 15.6284H16H3.2L16 2.82843Z" fill="white"/>
<path d="M47.7045 25H41.517V7.54545H47.7557C49.5114 7.54545 51.0227 7.89489 52.2898 8.59375C53.5568 9.28693 54.5313 10.2841 55.2131 11.5852C55.9006 12.8864 56.2443 14.4432 56.2443 16.2557C56.2443 18.0739 55.9006 19.6364 55.2131 20.9432C54.5313 22.25 53.5511 23.2528 52.2727 23.9517C51 24.6506 49.4773 25 47.7045 25ZM45.2074 21.8381H47.5511C48.642 21.8381 49.5597 21.6449 50.304 21.2585C51.054 20.8665 51.6165 20.2614 51.9915 19.4432C52.3722 18.6193 52.5625 17.5568 52.5625 16.2557C52.5625 14.9659 52.3722 13.9119 51.9915 13.0938C51.6165 12.2756 51.0568 11.6733 50.3125 11.2869C49.5682 10.9006 48.6506 10.7074 47.5597 10.7074H45.2074V21.8381ZM65.3557 25.2557C64.0091 25.2557 62.85 24.983 61.8784 24.4375C60.9125 23.8864 60.1682 23.108 59.6455 22.1023C59.1228 21.0909 58.8614 19.8949 58.8614 18.5142C58.8614 17.1676 59.1228 15.9858 59.6455 14.9688C60.1682 13.9517 60.904 13.1591 61.8529 12.5909C62.8074 12.0227 63.9267 11.7386 65.2108 11.7386C66.0745 11.7386 66.8784 11.8778 67.6228 12.1562C68.3728 12.429 69.0262 12.8409 69.583 13.392C70.1455 13.9432 70.583 14.6364 70.8955 15.4716C71.208 16.3011 71.3642 17.2727 71.3642 18.3864V19.3835H60.3103V17.1335H67.9466C67.9466 16.6108 67.833 16.1477 67.6057 15.7443C67.3784 15.3409 67.0631 15.0256 66.6597 14.7983C66.262 14.5653 65.7989 14.4489 65.2705 14.4489C64.7193 14.4489 64.2307 14.5767 63.8046 14.8324C63.3841 15.0824 63.0546 15.4205 62.8159 15.8466C62.5773 16.267 62.4551 16.7358 62.4495 17.2528V19.392C62.4495 20.0398 62.5688 20.5994 62.8074 21.071C63.0517 21.5426 63.3955 21.9062 63.8387 22.1619C64.2818 22.4176 64.8074 22.5455 65.4154 22.5455C65.8188 22.5455 66.1881 22.4886 66.5233 22.375C66.8586 22.2614 67.1455 22.0909 67.3841 21.8636C67.6228 21.6364 67.8046 21.358 67.9296 21.0284L71.2875 21.25C71.1171 22.0568 70.7676 22.7614 70.2392 23.3636C69.7165 23.9602 69.0404 24.4261 68.2108 24.7614C67.387 25.0909 66.4353 25.2557 65.3557 25.2557ZM74.2136 29.9091V11.9091H77.7931V14.108H77.955C78.1141 13.7557 78.3442 13.3977 78.6454 13.0341C78.9522 12.6648 79.3499 12.358 79.8386 12.1136C80.3329 11.8636 80.9465 11.7386 81.6795 11.7386C82.634 11.7386 83.5147 11.9886 84.3215 12.4886C85.1283 12.983 85.7732 13.7301 86.2562 14.7301C86.7391 15.7244 86.9806 16.9716 86.9806 18.4716C86.9806 19.9318 86.7448 21.1648 86.2732 22.1705C85.8073 23.1705 85.1709 23.929 84.3641 24.446C83.563 24.9574 82.6653 25.2131 81.6709 25.2131C80.9664 25.2131 80.367 25.0966 79.8726 24.8636C79.384 24.6307 78.9834 24.3381 78.6709 23.9858C78.3584 23.6278 78.1198 23.267 77.955 22.9034H77.8442V29.9091H74.2136ZM77.7675 18.4545C77.7675 19.233 77.8755 19.9119 78.0914 20.4915C78.3073 21.071 78.6198 21.5227 79.0289 21.8466C79.438 22.1648 79.9351 22.3239 80.5204 22.3239C81.1113 22.3239 81.6113 22.1619 82.0204 21.8381C82.4295 21.5085 82.7391 21.054 82.9493 20.4744C83.1653 19.8892 83.2732 19.2159 83.2732 18.4545C83.2732 17.6989 83.1681 17.0341 82.9579 16.4602C82.7476 15.8864 82.438 15.4375 82.0289 15.1136C81.6198 14.7898 81.117 14.6278 80.5204 14.6278C79.9295 14.6278 79.4295 14.7841 79.0204 15.0966C78.617 15.4091 78.3073 15.8523 78.0914 16.4261C77.8755 17 77.7675 17.6761 77.7675 18.4545ZM93.5117 7.54545V25H89.881V7.54545H93.5117ZM102.815 25.2557C101.491 25.2557 100.346 24.9744 99.3802 24.4119C98.42 23.8437 97.6785 23.054 97.1558 22.0426C96.6331 21.0256 96.3717 19.8466 96.3717 18.5057C96.3717 17.1534 96.6331 15.9716 97.1558 14.9602C97.6785 13.9432 98.42 13.1534 99.3802 12.5909C100.346 12.0227 101.491 11.7386 102.815 11.7386C104.139 11.7386 105.281 12.0227 106.241 12.5909C107.207 13.1534 107.951 13.9432 108.474 14.9602C108.997 15.9716 109.258 17.1534 109.258 18.5057C109.258 19.8466 108.997 21.0256 108.474 22.0426C107.951 23.054 107.207 23.8437 106.241 24.4119C105.281 24.9744 104.139 25.2557 102.815 25.2557ZM102.832 22.4432C103.434 22.4432 103.937 22.2727 104.34 21.9318C104.744 21.5852 105.048 21.1136 105.252 20.517C105.463 19.9205 105.568 19.2415 105.568 18.4801C105.568 17.7188 105.463 17.0398 105.252 16.4432C105.048 15.8466 104.744 15.375 104.34 15.0284C103.937 14.6818 103.434 14.5085 102.832 14.5085C102.224 14.5085 101.713 14.6818 101.298 15.0284C100.889 15.375 100.579 15.8466 100.369 16.4432C100.164 17.0398 100.062 17.7188 100.062 18.4801C100.062 19.2415 100.164 19.9205 100.369 20.517C100.579 21.1136 100.889 21.5852 101.298 21.9318C101.713 22.2727 102.224 22.4432 102.832 22.4432ZM113.918 29.9091C113.458 29.9091 113.026 29.8722 112.623 29.7983C112.225 29.7301 111.896 29.642 111.634 29.5341L112.453 26.8239C112.879 26.9545 113.262 27.0256 113.603 27.0369C113.95 27.0483 114.248 26.9688 114.498 26.7983C114.754 26.6278 114.961 26.3381 115.12 25.929L115.333 25.375L110.637 11.9091H114.455L117.166 21.5227H117.302L120.038 11.9091H123.882L118.793 26.4148C118.549 27.1193 118.217 27.733 117.796 28.2557C117.382 28.7841 116.856 29.1903 116.22 29.4744C115.583 29.7642 114.816 29.9091 113.918 29.9091ZM147.723 13.6562H143.99C143.922 13.1733 143.783 12.7443 143.572 12.3693C143.362 11.9886 143.092 11.6648 142.763 11.3977C142.433 11.1307 142.052 10.9261 141.621 10.7841C141.195 10.642 140.731 10.571 140.231 10.571C139.328 10.571 138.541 10.7955 137.871 11.2443C137.2 11.6875 136.68 12.3352 136.311 13.1875C135.942 14.0341 135.757 15.0625 135.757 16.2727C135.757 17.517 135.942 18.5625 136.311 19.4091C136.686 20.2557 137.209 20.8949 137.879 21.3267C138.55 21.7585 139.325 21.9744 140.206 21.9744C140.7 21.9744 141.158 21.9091 141.578 21.7784C142.004 21.6477 142.382 21.4574 142.712 21.2074C143.041 20.9517 143.314 20.642 143.53 20.2784C143.751 19.9148 143.905 19.5 143.99 19.0341L147.723 19.0511C147.626 19.8523 147.385 20.625 146.998 21.3693C146.618 22.108 146.104 22.7699 145.456 23.3551C144.814 23.9347 144.047 24.3949 143.155 24.7358C142.268 25.071 141.266 25.2386 140.146 25.2386C138.589 25.2386 137.197 24.8864 135.97 24.1818C134.748 23.4773 133.783 22.4574 133.072 21.1222C132.368 19.7869 132.016 18.1705 132.016 16.2727C132.016 14.3693 132.373 12.75 133.089 11.4148C133.805 10.0795 134.777 9.0625 136.004 8.36364C137.231 7.65909 138.612 7.30682 140.146 7.30682C141.158 7.30682 142.095 7.44886 142.959 7.73295C143.828 8.01705 144.598 8.43182 145.268 8.97727C145.939 9.51704 146.484 10.179 146.905 10.9631C147.331 11.7472 147.604 12.6449 147.723 13.6562ZM154.412 17.4318V25H150.781V7.54545H154.309V14.2188H154.463C154.758 13.446 155.236 12.8409 155.895 12.4034C156.554 11.9602 157.38 11.7386 158.375 11.7386C159.284 11.7386 160.077 11.9375 160.753 12.3352C161.434 12.7273 161.963 13.2926 162.338 14.0312C162.719 14.7642 162.906 15.642 162.9 16.6648V25H159.27V17.3125C159.275 16.5057 159.071 15.8778 158.656 15.429C158.247 14.9801 157.673 14.7557 156.934 14.7557C156.44 14.7557 156.003 14.8608 155.622 15.071C155.247 15.2812 154.952 15.5881 154.736 15.9915C154.525 16.3892 154.417 16.8693 154.412 17.4318ZM172.204 25.2557C170.857 25.2557 169.698 24.983 168.726 24.4375C167.76 23.8864 167.016 23.108 166.493 22.1023C165.971 21.0909 165.709 19.8949 165.709 18.5142C165.709 17.1676 165.971 15.9858 166.493 14.9688C167.016 13.9517 167.752 13.1591 168.701 12.5909C169.655 12.0227 170.775 11.7386 172.059 11.7386C172.922 11.7386 173.726 11.8778 174.471 12.1562C175.221 12.429 175.874 12.8409 176.431 13.392C176.993 13.9432 177.431 14.6364 177.743 15.4716C178.056 16.3011 178.212 17.2727 178.212 18.3864V19.3835H167.158V17.1335H174.794C174.794 16.6108 174.681 16.1477 174.454 15.7443C174.226 15.3409 173.911 15.0256 173.507 14.7983C173.11 14.5653 172.647 14.4489 172.118 14.4489C171.567 14.4489 171.079 14.5767 170.652 14.8324C170.232 15.0824 169.902 15.4205 169.664 15.8466C169.425 16.267 169.303 16.7358 169.297 17.2528V19.392C169.297 20.0398 169.417 20.5994 169.655 21.071C169.9 21.5426 170.243 21.9062 170.686 22.1619C171.13 22.4176 171.655 22.5455 172.263 22.5455C172.667 22.5455 173.036 22.4886 173.371 22.375C173.706 22.2614 173.993 22.0909 174.232 21.8636C174.471 21.6364 174.652 21.358 174.777 21.0284L178.135 21.25C177.965 22.0568 177.615 22.7614 177.087 23.3636C176.564 23.9602 175.888 24.4261 175.059 24.7614C174.235 25.0909 173.283 25.2557 172.204 25.2557ZM186.976 25.2557C185.635 25.2557 184.482 24.9716 183.516 24.4034C182.556 23.8295 181.817 23.0341 181.3 22.017C180.789 21 180.533 19.8295 180.533 18.5057C180.533 17.1648 180.791 15.9886 181.309 14.9773C181.831 13.9602 182.573 13.1676 183.533 12.5994C184.493 12.0256 185.635 11.7386 186.959 11.7386C188.101 11.7386 189.101 11.946 189.959 12.3608C190.817 12.7756 191.496 13.358 191.996 14.108C192.496 14.858 192.772 15.7386 192.823 16.75H189.397C189.3 16.0966 189.044 15.571 188.63 15.1733C188.22 14.7699 187.684 14.5682 187.019 14.5682C186.456 14.5682 185.965 14.7216 185.544 15.0284C185.13 15.3295 184.806 15.7699 184.573 16.3494C184.34 16.929 184.223 17.6307 184.223 18.4545C184.223 19.2898 184.337 20 184.564 20.5852C184.797 21.1705 185.124 21.6165 185.544 21.9233C185.965 22.2301 186.456 22.3835 187.019 22.3835C187.434 22.3835 187.806 22.2983 188.135 22.1278C188.47 21.9574 188.746 21.7102 188.962 21.3864C189.184 21.0568 189.328 20.6619 189.397 20.2017H192.823C192.766 21.2017 192.493 22.0824 192.005 22.8438C191.522 23.5994 190.854 24.1903 190.002 24.6165C189.149 25.0426 188.141 25.2557 186.976 25.2557ZM198.917 21.233L198.926 16.8778H199.454L203.647 11.9091H207.815L202.181 18.4886H201.32L198.917 21.233ZM195.627 25V7.54545H199.258V25H195.627ZM203.809 25L199.957 19.2983L202.377 16.733L208.062 25H203.809Z" fill="#363636"/>
</svg>
